<svg xmlns="http://www.w3.org/2000/svg" version="1.1" xmlns:xlink="http://www.w3.org/1999/xlink" xmlns:svgjs="http://svgjs.dev/svgjs" width="1920" height="1080" preserveAspectRatio="none" viewBox="0 0 1920 1080"><g mask="url(&quot;#SvgjsMask1280&quot;)" fill="none"><rect width="1920" height="1080" x="0" y="0" fill="rgba(89, 74, 103, 1)"></rect><path d="M201.02 -23.53L267.71 14.97L267.71 91.97L201.02 130.47L134.34 91.97L134.34 14.97zM267.71 322.97L334.39 361.47L334.39 438.47L267.71 476.97L201.02 438.47L201.02 361.47zM401.08 784.97L467.77 823.47L467.77 900.47L401.08 938.97L334.39 900.47L334.39 823.47zM534.45 91.97L601.14 130.47L601.14 207.47L534.45 245.97L467.77 207.47L467.77 130.47zM534.45 322.97L601.14 361.47L601.14 438.47L534.45 476.97L467.77 438.47L467.77 361.47zM601.14 -23.53L667.82 14.97L667.82 91.97L601.14 130.47L534.45 91.97L534.45 14.97zM601.14 207.47L667.82 245.97L667.82 322.97L601.14 361.47L534.45 322.97L534.45 245.97zM734.51 669.47L801.19 707.97L801.19 784.97L734.51 823.47L667.82 784.97L667.82 707.97zM867.88 207.47L934.57 245.97L934.57 322.97L867.88 361.47L801.19 322.97L801.19 245.97zM934.57 322.97L1001.25 361.47L1001.25 438.47L934.57 476.97L867.88 438.47L867.88 361.47zM867.88 900.47L934.57 938.97L934.57 1015.97L867.88 1054.47L801.19 1015.97L801.19 938.97zM1001.25 207.47L1067.94 245.97L1067.94 322.97L1001.25 361.47L934.57 322.97L934.57 245.97zM1268 207.47L1334.68 245.97L1334.68 322.97L1268 361.47L1201.31 322.97L1201.31 245.97zM1334.68 784.97L1401.37 823.47L1401.37 900.47L1334.68 938.97L1268 900.47L1268 823.47zM1268 900.47L1334.68 938.97L1334.68 1015.97L1268 1054.47L1201.31 1015.97L1201.31 938.97zM1401.37 438.47L1468.05 476.97L1468.05 553.97L1401.37 592.47L1334.68 553.97L1334.68 476.97zM1468.05 553.97L1534.74 592.47L1534.74 669.47L1468.05 707.97L1401.37 669.47L1401.37 592.47zM1601.42 784.97L1668.11 823.47L1668.11 900.47L1601.42 938.97L1534.74 900.47L1534.74 823.47zM1668.11 669.47L1734.8 707.97L1734.8 784.97L1668.11 823.47L1601.42 784.97L1601.42 707.97zM1801.48 -23.53L1868.17 14.97L1868.17 91.97L1801.48 130.47L1734.8 91.97L1734.8 14.97zM2001.54 553.97L2068.23 592.47L2068.23 669.47L2001.54 707.97L1934.85 669.47L1934.85 592.47zM1934.85 669.47L2001.54 707.97L2001.54 784.97L1934.85 823.47L1868.17 784.97L1868.17 707.97z" stroke="rgba(59, 27, 89, 1)" stroke-width="2"></path></g><defs><mask id="SvgjsMask1280"><rect width="1920" height="1080" fill="#ffffff"></rect></mask></defs></svg>